# xmcd CD database file
#
# Track frame offsets:
#	150
#	9024
#	16388
#	24915
#	37755
#	44950
#	52755
#	61856
#	70904
#	82944
#	84519
#	101086
#	112041
#	127673
#	149412
#	158963
#	181274
#	191672
#	209662
#	221160
#
# Disc length: 3097 seconds
#
# Revision: 0
# Processed by: cddbd v1.5.2PL0 Copyright (c) Steve Scherf et al.
# Submitted via: CDex 1.70beta2
#
DISCID=0b0c1714
DTITLE=Janis Joplin - California Blues 1962
DYEAR=1962
DGENRE=Blues
TTITLE0=See See Rider
TTITLE1=San Francisco Bay Blues
TTITLE2=Winning Boy Blues
TTITLE3=Careless Love
TTITLE4=I'll Drown In My Own Tears
TTITLE5=Gospel Ship
TTITLE6=Stealin' Stealin'
TTITLE7=Leavin' This Morning
TTITLE8=Daddy Daddy Daddy
TTITLE9=Intro to Careless Love
TTITLE10=Careless Love
TTITLE11=Bourgeois Blues
TTITLE12=Black Mountain Blues
TTITLE13=Honky Tonk Angel
TTITLE14=Empty Pillow On My Bed
TTITLE15=Honky Tonk Angel
TTITLE16=Empty Pillow On My Bed
TTITLE17=Red Mountain Burgundy
TTITLE18=No Reason For Living
TTITLE19=Mary Jane
EXTD=YEAR: 1962
EXTT0=
EXTT1=
EXTT2=
EXTT3=
EXTT4=
EXTT5=
EXTT6=
EXTT7=
EXTT8=
EXTT9=
EXTT10=
EXTT11=
EXTT12=
EXTT13=
EXTT14=
EXTT15=
EXTT16=
EXTT17=
EXTT18=
EXTT19=
PLAYORDER=
